PathFileType	4	(X/Y/Z)	5_coords_data.trc
DataRate	CameraRate	NumFrames	NumMarkers	Units	OrigDataRate	OrigDataStartFrame	OrigNumFrames
30.0	30.0	6	21	m	30.0	50	59
Frame#	Time	THUMB_TIP	THUMB_IP	THUMB_MCP	THUMB_CMC	INDEX_TIP	INDEX_DIP	INDEX_PIP	INDEX_MCP	MIDDLE_TIP	MIDDLE_DIP	MIDDLE_PIP	MIDDLE_MCP	RING_TIP	RING_DIP	RING_PIP	RING_MCP	PINKY_TIP	PINKY_DIP	PINKY_PIP	PINKY_MCP	WRIST
X1	Y1	Z1	X2	Y2	Z2	X3	Y3	Z3	X4	Y4	Z4	X5	Y5	Z5	X6	Y6	Z6	X7	Y7	Z7	X8	Y8	Z8	X9	Y9	Z9	X10	Y10	Z10	X11	Y11	Z11	X12	Y12	Z12	X13	Y13	Z13	X14	Y14	Z14	X15	Y15	Z15	X16	Y16	Z16	X17	Y17	Z17	X18	Y18	Z18	X19	Y19	Z19	X20	Y20	Z20	X21	Y21	Z21
48	1.6333333333333262	0.5040245321631192	-0.02540064008808751	-0.16551641126428301	0.5012803123408726	-0.028041126952008777	-0.14285593715872535	0.4801439585062419	-0.03217652625067724	-0.12038433242702296	0.47512808364950476	-0.031743650322369144	-0.07606115995649415	0.5894171102698359	0.01506921325102073	-0.14262317508122777	0.5718634216225177	0.017203615527697003	-0.13871007633543364	0.5475944992064431	0.017894524353749386	-0.13218689591813443	0.51090506796857	0.003684932395838336	-0.11588937384172507	0.6052529558468046	0.029396712868671293	-0.12085050472832715	0.5873597528822667	0.02805796317516762	-0.11839265263188328	0.5588852045740383	0.025623881807504745	-0.11267558200629524	0.5181813156762293	0.01378195785375691	-0.0985649411041793	0.6027126505941852	0.03558568562891984	-0.09776506936743085	0.5850465653354523	0.035473884860551474	-0.09417383946398944	0.5605639088005031	0.03418583958819854	-0.08980114608712358	0.5244691217954208	0.01814170884445876	-0.08117136893266957	0.5949673369984853	0.030868758882376834	-0.07110926208900181	0.5780983039127546	0.03236285705668818	-0.06861860085189142	0.5573530357585696	0.03027519833594816	-0.06615130490760779	0.5255980897612569	0.013919609341251138	-0.06115114847562547	0.4622830810018609	-0.023011742144276925	-0.05198982011943096
49	1.6666666666666594	0.5036073791002337	-0.02725185421559828	-0.165732595301137	0.5011570830607186	-0.029614143634615453	-0.14300781503774307	0.4801951320656327	-0.0329166210250329	-0.1202369948161216	0.4752567074003837	-0.03195696664859926	-0.07591340036233829	0.5896930245747208	0.020607222412285853	-0.14356780695635885	0.5721612185030533	0.02033514214369747	-0.13903330056724789	0.5481687838983994	0.018303540111531125	-0.13180519514989908	0.5122362055238467	0.002403985817815757	-0.11538295173988256	0.6051297613416527	0.03507364556530579	-0.12128478751179461	0.5876176149648542	0.031516117953509615	-0.11834051738680795	0.559670005898769	0.026108843989344876	-0.11208735132746295	0.5195887611140251	0.01222621456691142	-0.09805473440028861	0.6025048557165286	0.04090426871734765	-0.098100482720894	0.5850848631493804	0.03843778449549684	-0.09416852207207485	0.5610167445724474	0.03428113296716484	-0.08930766872737131	0.5257742700048186	0.01640560847727457	-0.08075463157315704	0.5944759356994485	0.036247146460107404	-0.07019511043945259	0.5775615725998143	0.03533355095653412	-0.06773144159206529	0.5572091095329633	0.03078053203403397	-0.06531084563160108	0.5265398371463872	0.012307559169569271	-0.060948683802100695	0.4622830810018609	-0.023011742144276925	-0.05198982011943101
51	1.7000000000000006	0.5032318476526177	-0.02850379034182071	-0.16590717274888783	0.5010458840586066	-0.030681568234068424	-0.1431370421691636	0.48026062483445386	-0.03342307718803417	-0.12013101844405849	0.4753409346276769	-0.032096468940365996	-0.07581480517141334	0.5896187348803942	0.024579787320884283	-0.14356390375004927	0.5722799755734919	0.022404451475468545	-0.1388062425959784	0.5486056165357929	0.018370748225929656	-0.13137228031138362	0.5129914877296571	0.0016374271690829945	-0.11508529502286374	0.6048549151401685	0.03862020108242681	-0.12066914301141382	0.5877614383369243	0.03342383353677658	-0.11770084129031705	0.5602430279662337	0.026105074794348093	-0.11148936713836277	0.520408160779984	0.011221651601573845	-0.09778480617061758	0.6021310991118927	0.04423672215848162	-0.09781421159353074	0.585096091521205	0.039957024123770224	-0.09375309092099438	0.5614434191631215	0.03395195758372216	-0.0887861758652736	0.5264909228377556	0.015360340349107715	-0.08057669334644949	0.5939583030526341	0.039684430486915945	-0.06891973965799458	0.5772241019814667	0.03689616675739482	-0.06664112168115491	0.5572555775241872	0.03077298624126168	-0.06450179693584818	0.5269841367522308	0.011491772115079346	-0.06092994777746438	0.4622830810018609	-0.023011742144276925	-0.051989820119430985
52	1.733333333333334	0.5029660447004164	-0.02939515705236917	-0.16601792488754624	0.5009758703472761	-0.03144187922646635	-0.1432177026433188	0.480321241873353	-0.03378982857695145	-0.12005105730024496	0.4754043786561245	-0.03219126514522275	-0.07574350657739634	0.589298509198148	0.027833652434478884	-0.14332299960596867	0.5722707592223703	0.024032045590772433	-0.1384646546029571	0.54895871751281	0.01833600320654938	-0.13097375041929163	0.5134775806479439	0.0011323596430894423	-0.114887741936201	0.6044048408239225	0.041422269172868176	-0.11990782375667497	0.5877930430892044	0.0348228521964814	-0.11699305591127257	0.560685882541061	0.025990961051101213	-0.1109425108272876	0.5209447696886209	0.010525620605063124	-0.09761527873889975	0.6016098605666764	0.04683426903331278	-0.09741671485716552	0.5850449880500558	0.04103990347521258	-0.09328993326769267	0.5618183851961445	0.03356511529232409	-0.08830671738960424	0.5269445547359494	0.014662175605633654	-0.08048267404649137	0.5933345157315615	0.04241777426707738	-0.06768459737017854	0.5769205460256744	0.03802810230602405	-0.06560797064190907	0.5573450677504562	0.030662180512505688	-0.06377606850799553	0.5272442852665835	0.010993663719872648	-0.060951924029309656	0.462283081001861	-0.023011742144276925	-0.051989820119430985
53	1.7666666666666675	0.5028417823722143	-0.029952084284837643	-0.16606259313503277	0.5009616069979927	-0.031913092657660735	-0.14324550772247646	0.48036953358550905	-0.034024437255570805	-0.12000053543675926	0.4754432849010095	-0.03224556186323624	-0.07570090026628623	0.5888636634028848	0.030321556468178024	-0.14299069502039183	0.5721799016833435	0.025232774934885183	-0.13811664153361203	0.5492054287950134	0.018258622351034592	-0.13066381493959053	0.5137183775469943	0.0008696984548161035	-0.11479149269449995	0.6039150694217142	0.043456202489541296	-0.11916284108571207	0.5877652021112814	0.03575844336906031	-0.1163474742573119	0.560989397401042	0.025836747598568466	-0.11051431172255138	0.521225342557315	0.010129724966650877	-0.09754290842816965	0.6011001410617709	0.04867504474295248	-0.09700659988191324	0.5849908860033962	0.04172491942136991	-0.09286079966017985	0.5621225595609575	0.03319226241864315	-0.08791980895022239	0.5271664328562616	0.01429195557672569	-0.08046538468763778	0.592757254122486	0.044403424685592	-0.06662343754639977	0.5767053983552242	0.03876565351327155	-0.06473837451414605	0.5574663904226724	0.03050133919280762	-0.06319769233284322	0.5273511410105943	0.01077444387077342	-0.06100570583611459	0.4622830810018609	-0.023011742144276925	-0.05198982011943096
54	1.8000000000000007	0.5028884669853843	-0.030200564231597338	-0.16603444333054235	0.5010151134298744	-0.032113144332217236	-0.1432126865222953	0.48039788726512933	-0.03413395497666938	-0.11998196742858169	0.47545377972245306	-0.032263450839364216	-0.07568809635279097	0.5884496974564838	0.03193788404208209	-0.14270993114936334	0.572045120806837	0.025984624423195046	-0.13786755932803485	0.5493076199753671	0.018197111402710298	-0.1304939218339152	0.5137326965528288	0.0008307272170176017	-0.11479457096212864	0.6035389415303061	0.04461633350012151	-0.11860792794446517	0.5877167004514121	0.03623000932162801	-0.11590122256438165	0.5611251383738571	0.02571228426127703	-0.11027309358305831	0.5212690676726908	0.010025900387693132	-0.09756172425343074	0.6007677931079544	0.049664786623884294	-0.09668706777260039	0.584979663587501	0.04200771702378614	-0.09255133913248853	0.5623165247855352	0.03290618861339978	-0.0876805795163953	0.5271794943458824	0.014230627197089007	-0.08051585121250826	0.5923911616039603	0.04553858652044951	-0.06589751157263338	0.5766228278898378	0.039108604661184265	-0.06416114030772949	0.5575912531634019	0.030340617397963454	-0.06284448477795462	0.5273293724187408	0.010795907563652674	-0.061082002923152495	0.4622830810018609	-0.023011742144276925	-0.05198982011943096
